<svg width="76" height="37" viewBox="0 0 76 37" fill="none" xmlns="http://www.w3.org/2000/svg">
<path d="M75.7232 5.60714C71.7355 5.95481 71.4536 6.23671 71.1059 10.2244C70.7581 6.23671 73.9392 5.95481 45.4801 5.60714C73.9392 5.25935 70.7581 4.97744 71.1059 0.989868C71.4536 4.97757 71.7355 5.25947 75.7232 5.60714Z" fill="white"/>
<path d="M17.0839 5.60714C21.0716 5.95481 21.3535 6.23671 21.7011 10.2244C22.0489 6.23671 18.8679 5.95481 47.327 5.60714C18.8679 5.25935 22.0489 4.97744 21.7011 0.989868C21.3535 4.97757 21.0716 5.25947 17.0839 5.60714Z" fill="white"/>
<path d="M70.1413 28.8413C69.3763 28.8413 68.7561 28.2211 68.7561 27.4561V13.6782H72.0436C72.8086 13.6782 73.4288 14.2983 73.4288 15.0633V28.8413H70.1413Z" fill="white"/>
<path d="M63.015 25.5538C63.8154 25.5538 64.4679 25.4184 64.9728 25.1475L-nan -nanL64.9728 25.1475C65.5232 24.8521 66.2751 24.9904 66.6244 25.5084L68.1494 27.7701C67.9771 27.9055 67.6569 28.0964 67.189 28.3426C66.7212 28.5889 66.124 28.8044 65.3975 28.9891C64.6834 29.1861 63.8646 29.2846 62.9412 29.2846C61.3405 29.2846 59.9061 28.9644 58.6379 28.3242C57.3696 27.6716 56.3662 26.7481 55.6274 25.5538C54.9009 24.3472 54.5377 22.9127 54.5377 21.2505C54.5377 19.576 54.9009 18.1415 55.6274 16.9472C56.3662 15.7529 57.3696 14.8356 58.6379 14.1953C59.9061 13.5551 61.3405 13.2349 62.9412 13.2349C63.8523 13.2349 64.6588 13.3334 65.3606 13.5304C66.0747 13.7274 66.6719 13.9552 67.1521 14.2138C67.6323 14.46 67.9647 14.6632 68.1494 14.8233L65.9147 18.0738C65.8285 17.9753 65.6623 17.8399 65.416 17.6675C65.1698 17.4951 64.8435 17.3351 64.4372 17.1873C64.0431 17.0396 63.5691 16.9657 63.015 16.9657C62.3378 16.9657 61.6914 17.1442 61.0758 17.5013C60.4725 17.8584 59.9799 18.357 59.5982 18.9973C59.2166 19.6375 59.0257 20.3886 59.0257 21.2505C59.0257 22.1124 59.2166 22.8696 59.5982 23.5222C59.9799 24.1625 60.4725 24.6611 61.0758 25.0182C61.6914 25.3753 62.3378 25.5538 63.015 25.5538Z" fill="white"/>
<path d="M48.2795 13.2349C49.1907 13.2349 50.0341 13.3211 50.8098 13.4935C51.5855 13.6536 52.2381 13.8382 52.7675 14.0476C53.3093 14.2569 53.6664 14.4354 53.8387 14.5832L52.9771 16.0985C52.586 16.7863 51.6308 17.0154 50.9022 16.7071L-nan -nanL50.9022 16.7071C50.2742 16.4362 49.5724 16.3008 48.7967 16.3008C48.0949 16.3008 47.5038 16.4239 47.0236 16.6702C46.5435 16.9041 46.3034 17.2612 46.3034 17.7414C46.3034 18.2216 46.5619 18.6033 47.0791 18.8865C47.5962 19.1697 48.3165 19.4159 49.2399 19.6252C50.0156 19.7853 50.779 20.0315 51.5301 20.364C52.2812 20.6841 52.903 21.152 53.3955 21.7676C53.888 22.371 54.1342 23.1774 54.1342 24.1871C54.1342 25.1844 53.9188 26.0155 53.4878 26.6804C53.0692 27.333 52.509 27.8501 51.8071 28.2318C51.1053 28.6135 50.3358 28.8844 49.4985 29.0445C48.6612 29.2045 47.8301 29.2846 47.0052 29.2846C45.934 29.2846 44.992 29.1799 44.1794 28.9706C43.3668 28.7736 42.6957 28.5458 42.1663 28.2872C41.6491 28.0163 41.2798 27.7886 41.0581 27.6039L41.8515 26.0537C42.2637 25.2483 43.373 24.9938 44.1891 25.3843C44.2043 25.3915 44.2195 25.3988 44.2348 25.4061C44.9736 25.7385 45.7678 25.9047 46.6173 25.9047C47.5038 25.9047 48.1995 25.7508 48.7043 25.443C49.2215 25.1352 49.48 24.7227 49.48 24.2056C49.48 23.8239 49.3569 23.516 49.1107 23.2821C48.8644 23.0359 48.5258 22.8327 48.0949 22.6726C47.6639 22.5126 47.1591 22.371 46.5804 22.2478C46.0509 22.137 45.5092 21.977 44.9551 21.7676C44.401 21.546 43.8839 21.2567 43.4037 20.8996C42.9235 20.5425 42.5357 20.0993 42.2402 19.5698C41.9447 19.0281 41.7969 18.3816 41.7969 17.6306C41.7969 16.6702 42.1047 15.8698 42.7204 15.2296C43.336 14.577 44.1363 14.0845 45.1213 13.7521C46.1064 13.4073 47.1591 13.2349 48.2795 13.2349Z" fill="white"/>
<path d="M29.5425 22.3032C29.5794 22.9927 29.7641 23.6084 30.0965 24.1501C30.429 24.6919 30.9092 25.1167 31.5371 25.4245C32.1774 25.7323 32.9408 25.8862 33.8273 25.8862C34.6276 25.8862 35.3294 25.7877 35.9328 25.5907C36.5484 25.3937 37.0655 25.1536 37.4842 24.8704L-nan -nanL37.4842 24.8704C38.0067 24.5121 38.8095 24.563 39.1633 25.0887L40.3838 26.902C40.0391 27.333 39.5773 27.7331 38.9986 28.1025C38.4322 28.4596 37.7058 28.7428 36.8193 28.9521C35.9451 29.1737 34.8492 29.2845 33.5318 29.2845C31.8696 29.2845 30.4105 28.9582 29.1546 28.3057C27.8987 27.6531 26.9198 26.7112 26.218 25.4799C25.5162 24.2486 25.1653 22.7834 25.1653 21.0843C25.1653 19.6067 25.4793 18.277 26.1072 17.0949C26.7352 15.9006 27.6463 14.9587 28.8406 14.2692C30.0473 13.5797 31.494 13.2349 33.1809 13.2349C34.7692 13.2349 36.1421 13.5427 37.2995 14.1583C38.4692 14.7617 39.3742 15.6482 40.0144 16.8179C40.6547 17.9876 40.9748 19.4159 40.9748 21.1027C40.9748 21.2012 40.9687 21.4044 40.9564 21.7122C40.9564 22.0077 40.944 22.2047 40.9194 22.3032H29.5425ZM36.5792 19.4036C36.5669 19.0096 36.4437 18.5848 36.2098 18.1292C35.9882 17.6736 35.6373 17.2858 35.1571 16.9656C34.6769 16.6455 34.0366 16.4855 33.2363 16.4855C32.4359 16.4855 31.7772 16.6394 31.2601 16.9472C30.7553 17.255 30.3736 17.6367 30.115 18.0923C29.8564 18.5355 29.7087 18.9726 29.6717 19.4036H36.5792Z" fill="white"/>
<path d="M20.7133 28.8413C19.9483 28.8413 19.3281 28.2211 19.3281 27.4561V13.6781H22.6156C23.3806 13.6781 24.0008 14.2983 24.0008 15.0633V28.8413H20.7133Z" fill="white"/>
<path d="M14.2212 28.8413C13.4562 28.8413 12.836 28.2211 12.836 27.4561V26.2002C12.7252 26.4711 12.442 26.8528 11.9865 27.3453C11.5309 27.8378 10.9153 28.2872 10.1396 28.6935C9.37617 29.0875 8.47734 29.2845 7.44307 29.2845C5.99017 29.2845 4.70349 28.9398 3.58303 28.2503C2.46258 27.5484 1.58222 26.5942 0.941954 25.3876C0.314005 24.1686 3.05176e-05 22.7957 3.05176e-05 21.2689C3.05176e-05 19.7422 0.314005 18.3755 0.941954 17.1688C1.58222 15.9498 2.46258 14.9895 3.58303 14.2876C4.70349 13.5858 5.99017 13.2349 7.44307 13.2349C8.45272 13.2349 9.32692 13.4073 10.0657 13.752C10.8168 14.0845 11.4201 14.4785 11.8757 14.934C12.3435 15.3773 12.6452 15.7775 12.7806 16.1345V13.6782H16.0497C16.8147 13.6782 17.4349 14.2983 17.4349 15.0633V28.8413H14.2212ZM4.59883 21.2689C4.59883 22.1185 4.78968 22.8696 5.17138 23.5222C5.55307 24.1624 6.05789 24.6611 6.68584 25.0182C7.31379 25.3752 7.99715 25.5538 8.73591 25.5538C9.51161 25.5538 10.2011 25.3752 10.8044 25.0182C11.4078 24.6488 11.8818 24.144 12.2266 23.5037C12.5836 22.8511 12.7622 22.1062 12.7622 21.2689C12.7622 20.4317 12.5836 19.6929 12.2266 19.0527C11.8818 18.4001 11.4078 17.8891 10.8044 17.5197C10.2011 17.1503 9.51161 16.9656 8.73591 16.9656C7.99715 16.9656 7.31379 17.1503 6.68584 17.5197C6.05789 17.8768 5.55307 18.3816 5.17138 19.0342C4.78968 19.6744 4.59883 20.4194 4.59883 21.2689Z" fill="white"/>
<path d="M71.5346 36.1043C71.3623 36.1043 71.2083 36.0765 71.0729 36.0211C70.9405 35.9657 70.8374 35.8919 70.7635 35.7995C70.6927 35.7072 70.6573 35.604 70.6573 35.4902V35.4347C70.6573 35.404 70.6727 35.3886 70.7035 35.3886H70.9252C70.9559 35.3886 70.9713 35.404 70.9713 35.4347V35.4717C70.9713 35.5733 71.0237 35.6625 71.1283 35.7395C71.236 35.8134 71.3699 35.8503 71.53 35.8503C71.6901 35.8503 71.8194 35.8149 71.9179 35.7441C72.0164 35.6702 72.0656 35.5779 72.0656 35.4671C72.0656 35.3901 72.0395 35.327 71.9871 35.2778C71.9379 35.2285 71.8778 35.19 71.8071 35.1623C71.7393 35.1346 71.6331 35.0992 71.4885 35.0561C71.3161 35.0069 71.1745 34.9576 71.0637 34.9084C70.9529 34.8591 70.859 34.7914 70.782 34.7052C70.7081 34.616 70.6712 34.5036 70.6712 34.3682C70.6712 34.1712 70.7482 34.0142 70.9021 33.8972C71.056 33.7802 71.2591 33.7217 71.5115 33.7217C71.6808 33.7217 71.8301 33.7494 71.9594 33.8049C72.0918 33.8603 72.1934 33.9372 72.2642 34.0357C72.335 34.1311 72.3704 34.2389 72.3704 34.3589V34.3728C72.3704 34.4036 72.355 34.4189 72.3242 34.4189H72.1072C72.0764 34.4189 72.061 34.4036 72.061 34.3728V34.3589C72.061 34.2543 72.0102 34.1665 71.9086 34.0957C71.8101 34.0249 71.6762 33.9895 71.5069 33.9895C71.3499 33.9895 71.2237 34.0219 71.1283 34.0865C71.0329 34.1481 70.9852 34.2343 70.9852 34.3451C70.9852 34.4497 71.0313 34.5298 71.1237 34.5852C71.216 34.6406 71.3592 34.696 71.5531 34.7514C71.7316 34.8037 71.8763 34.853 71.9871 34.8991C72.0979 34.9453 72.1934 35.013 72.2734 35.1023C72.3534 35.1885 72.3934 35.3024 72.3934 35.444C72.3934 35.6441 72.3149 35.8041 72.158 35.9242C72.001 36.0442 71.7932 36.1043 71.5346 36.1043Z" fill="white"/>
<path d="M69.3994 34.5205C69.4117 34.6067 69.4179 34.7145 69.4179 34.8437V34.9915C69.4179 35.0223 69.4025 35.0377 69.3717 35.0377H67.8803C67.868 35.0377 67.8619 35.0438 67.8619 35.0561C67.868 35.2254 67.8773 35.3347 67.8896 35.384C67.9234 35.5225 67.9958 35.6317 68.1066 35.7118C68.2174 35.7918 68.359 35.8318 68.5314 35.8318C68.6607 35.8318 68.7746 35.8026 68.8731 35.7441C68.9716 35.6856 69.0485 35.6025 69.1039 35.4948C69.1224 35.4671 69.1439 35.4609 69.1686 35.4763L69.3486 35.5825C69.3733 35.5979 69.3794 35.6194 69.3671 35.6471C69.2902 35.7949 69.1747 35.9119 69.0208 35.9981C68.8669 36.0812 68.6899 36.1227 68.4898 36.1227C68.2713 36.1196 68.0881 36.0673 67.9404 35.9657C67.7926 35.8642 67.6864 35.7226 67.6218 35.5409C67.5664 35.3932 67.5387 35.1808 67.5387 34.9038C67.5387 34.7745 67.5402 34.6698 67.5433 34.5898C67.5494 34.5067 67.5618 34.4328 67.5802 34.3682C67.6325 34.1681 67.7372 34.008 67.8942 33.888C68.0543 33.7679 68.2466 33.7079 68.4714 33.7079C68.7515 33.7079 68.9669 33.7787 69.1178 33.9203C69.2686 34.0619 69.3625 34.262 69.3994 34.5205ZM68.4714 33.9942C68.3205 33.9942 68.1943 34.0342 68.0927 34.1142C67.9942 34.1912 67.9296 34.2958 67.8988 34.4282C67.8803 34.4928 67.868 34.5975 67.8619 34.7422C67.8619 34.7545 67.868 34.7606 67.8803 34.7606H69.0762C69.0885 34.7606 69.0947 34.7545 69.0947 34.7422C69.0885 34.6036 69.0793 34.5051 69.067 34.4466C69.0331 34.3081 68.9639 34.1989 68.8592 34.1188C68.7576 34.0357 68.6283 33.9942 68.4714 33.9942Z" fill="white"/>
<path d="M65.8511 36.0812C65.8203 36.0812 65.8049 36.0658 65.8049 36.035V32.8953C65.8049 32.8645 65.8203 32.8491 65.8511 32.8491H66.0866C66.1174 32.8491 66.1328 32.8645 66.1328 32.8953V36.035C66.1328 36.0658 66.1174 36.0812 66.0866 36.0812H65.8511Z" fill="white"/>
<path d="M63.516 33.7079C63.793 33.7079 64.0069 33.7787 64.1578 33.9203C64.3086 34.0619 64.384 34.2496 64.384 34.4836V36.035C64.384 36.0658 64.3686 36.0812 64.3378 36.0812H64.1024C64.0716 36.0812 64.0562 36.0658 64.0562 36.035V35.8457C64.0562 35.8395 64.0531 35.8349 64.047 35.8318C64.0439 35.8288 64.0393 35.8303 64.0331 35.8364C63.9562 35.9288 63.8561 35.9996 63.733 36.0488C63.6099 36.095 63.4729 36.1181 63.322 36.1181C63.1035 36.1181 62.9203 36.0627 62.7726 35.9519C62.6248 35.8411 62.551 35.6718 62.551 35.444C62.551 35.2131 62.6341 35.0315 62.8003 34.8991C62.9696 34.7637 63.2035 34.696 63.5021 34.696H64.0377C64.05 34.696 64.0562 34.6898 64.0562 34.6775V34.5021C64.0562 34.3451 64.0116 34.2219 63.9223 34.1327C63.8361 34.0403 63.7007 33.9942 63.516 33.9942C63.3682 33.9942 63.2482 34.0234 63.1558 34.0819C63.0635 34.1373 63.0065 34.2158 62.985 34.3174C62.9758 34.3481 62.9573 34.362 62.9296 34.3589L62.6802 34.3266C62.6464 34.3204 62.6325 34.3081 62.6387 34.2897C62.6633 34.1173 62.7557 33.9772 62.9157 33.8695C63.0758 33.7618 63.2759 33.7079 63.516 33.7079ZM63.3867 35.8364C63.5683 35.8364 63.7253 35.7918 63.8577 35.7025C63.99 35.6102 64.0562 35.4871 64.0562 35.3332V34.973C64.0562 34.9607 64.05 34.9545 64.0377 34.9545H63.5529C63.3498 34.9545 63.1866 34.9961 63.0635 35.0792C62.9404 35.1623 62.8788 35.2778 62.8788 35.4255C62.8788 35.561 62.925 35.6641 63.0173 35.7349C63.1127 35.8026 63.2359 35.8364 63.3867 35.8364Z" fill="white"/>
<path d="M61.3356 33.9711C61.3356 34.0018 61.3202 34.0172 61.2894 34.0172H60.7676C60.7553 34.0172 60.7492 34.0234 60.7492 34.0357V35.3978C60.7492 35.5455 60.7815 35.6502 60.8461 35.7118C60.9139 35.7703 61.0185 35.7995 61.1601 35.7995H61.2755C61.3063 35.7995 61.3217 35.8149 61.3217 35.8457V36.035C61.3217 36.0658 61.3063 36.0811 61.2755 36.0811C61.2386 36.0842 61.1817 36.0858 61.1047 36.0858C60.8831 36.0858 60.7153 36.0442 60.6014 35.9611C60.4875 35.878 60.4306 35.7241 60.4306 35.4994V34.0357C60.4306 34.0234 60.4244 34.0172 60.4121 34.0172H60.1305C60.0997 34.0172 60.0843 34.0018 60.0843 33.9711V33.791C60.0843 33.7602 60.0997 33.7448 60.1305 33.7448H60.4121C60.4244 33.7448 60.4306 33.7387 60.4306 33.7263V33.1907C60.4306 33.16 60.446 33.1446 60.4768 33.1446H60.703C60.7338 33.1446 60.7492 33.16 60.7492 33.1907V33.7263C60.7492 33.7387 60.7553 33.7448 60.7676 33.7448H61.2894C61.3202 33.7448 61.3356 33.7602 61.3356 33.791V33.9711Z" fill="white"/>
<path d="M58.5933 33.32C58.5195 33.32 58.4579 33.2954 58.4087 33.2461C58.3594 33.1969 58.3348 33.1353 58.3348 33.0615C58.3348 32.9845 58.3594 32.9229 58.4087 32.8768C58.4579 32.8275 58.5195 32.8029 58.5933 32.8029C58.6672 32.8029 58.7288 32.8275 58.778 32.8768C58.8273 32.9229 58.8519 32.9845 58.8519 33.0615C58.8519 33.1353 58.8273 33.1969 58.778 33.2461C58.7288 33.2954 58.6672 33.32 58.5933 33.32ZM58.4641 36.0765C58.4333 36.0765 58.4179 36.0611 58.4179 36.0304V33.7864C58.4179 33.7556 58.4333 33.7402 58.4641 33.7402H58.6995C58.7303 33.7402 58.7457 33.7556 58.7457 33.7864V36.0304C58.7457 36.0611 58.7303 36.0765 58.6995 36.0765H58.4641Z" fill="white"/>
<path d="M56.6026 33.791C56.6026 33.7602 56.618 33.7448 56.6488 33.7448H56.8842C56.915 33.7448 56.9304 33.7602 56.9304 33.791V36.0027C56.9304 36.3474 56.8304 36.5998 56.6303 36.7599C56.4333 36.92 56.1609 37 55.813 37C55.7422 37 55.6884 36.9985 55.6514 36.9954C55.6207 36.9923 55.6053 36.9754 55.6053 36.9446L55.6145 36.7322C55.6145 36.7168 55.6191 36.7045 55.6284 36.6953C55.6376 36.6891 55.6484 36.6876 55.6607 36.6906L55.7853 36.6953C56.0716 36.6953 56.2794 36.6383 56.4087 36.5244C56.538 36.4136 56.6026 36.2366 56.6026 35.9934V35.8226C56.6026 35.8164 56.5995 35.8134 56.5934 35.8134C56.5903 35.8103 56.5857 35.8118 56.5795 35.818C56.4379 36.0027 56.2363 36.095 55.9746 36.095C55.7746 36.095 55.596 36.0411 55.439 35.9334C55.2851 35.8257 55.182 35.6733 55.1297 35.4763C55.0928 35.3501 55.0743 35.1623 55.0743 34.913C55.0743 34.7776 55.0774 34.6637 55.0835 34.5713C55.0927 34.479 55.1097 34.3959 55.1343 34.322C55.1897 34.1373 55.2898 33.9895 55.4344 33.8787C55.5791 33.7648 55.753 33.7079 55.9562 33.7079C56.2301 33.7079 56.4379 33.7987 56.5795 33.9803C56.5857 33.9865 56.5903 33.988 56.5934 33.9849C56.5995 33.9818 56.6026 33.9772 56.6026 33.9711V33.791ZM56.5795 35.3747C56.5887 35.3285 56.5949 35.2716 56.598 35.2039C56.6011 35.1362 56.6026 35.0377 56.6026 34.9084C56.6026 34.7514 56.6011 34.6467 56.598 34.5944C56.5949 34.539 56.5872 34.4882 56.5749 34.442C56.5503 34.3127 56.4887 34.2066 56.3902 34.1234C56.2948 34.0373 56.1732 33.9942 56.0254 33.9942C55.8808 33.9942 55.7576 34.0357 55.6561 34.1188C55.5576 34.2019 55.4883 34.3097 55.4483 34.442C55.4175 34.5405 55.4021 34.6944 55.4021 34.9038C55.4021 35.1285 55.4175 35.2839 55.4483 35.3701C55.4791 35.4994 55.5452 35.6071 55.6468 35.6933C55.7515 35.7764 55.8777 35.818 56.0254 35.818C56.1763 35.818 56.2994 35.7764 56.3948 35.6933C56.4933 35.6102 56.5549 35.504 56.5795 35.3747Z" fill="white"/>
<path d="M53.4681 33.32C53.3943 33.32 53.3327 33.2954 53.2834 33.2461C53.2342 33.1969 53.2096 33.1353 53.2096 33.0615C53.2096 32.9845 53.2342 32.9229 53.2834 32.8768C53.3327 32.8275 53.3943 32.8029 53.4681 32.8029C53.542 32.8029 53.6036 32.8275 53.6528 32.8768C53.7021 32.9229 53.7267 32.9845 53.7267 33.0615C53.7267 33.1353 53.7021 33.1969 53.6528 33.2461C53.6036 33.2954 53.542 33.32 53.4681 33.32ZM53.3388 36.0765C53.3081 36.0765 53.2927 36.0611 53.2927 36.0304V33.7864C53.2927 33.7556 53.3081 33.7402 53.3388 33.7402H53.5743C53.6051 33.7402 53.6205 33.7556 53.6205 33.7864V36.0304C53.6205 36.0611 53.6051 36.0765 53.5743 36.0765H53.3388Z" fill="white"/>
<path d="M49.7641 36.0812C49.7333 36.0812 49.718 36.0658 49.718 36.035V32.8953C49.718 32.8645 49.7333 32.8491 49.7641 32.8491H50.8538C51.1585 32.8491 51.4002 32.9291 51.5787 33.0892C51.7603 33.2493 51.8511 33.4663 51.8511 33.7402V35.19C51.8511 35.464 51.7603 35.681 51.5787 35.8411C51.4002 36.0011 51.1585 36.0812 50.8538 36.0812H49.7641ZM50.0458 35.7764C50.0458 35.7888 50.0519 35.7949 50.0643 35.7949H50.8677C51.0677 35.7949 51.2263 35.7364 51.3432 35.6195C51.4633 35.5025 51.5233 35.3455 51.5233 35.1485V33.7864C51.5233 33.5863 51.4648 33.4278 51.3479 33.3108C51.2309 33.1938 51.0708 33.1354 50.8677 33.1354H50.0643C50.0519 33.1354 50.0458 33.1415 50.0458 33.1538V35.7764Z" fill="white"/>
<path d="M45.7951 36.1043C45.6227 36.1043 45.4688 36.0765 45.3334 36.0211C45.201 35.9657 45.0979 35.8919 45.024 35.7995C44.9532 35.7072 44.9178 35.604 44.9178 35.4902V35.4347C44.9178 35.404 44.9332 35.3886 44.964 35.3886H45.1856C45.2164 35.3886 45.2318 35.404 45.2318 35.4347V35.4717C45.2318 35.5733 45.2842 35.6625 45.3888 35.7395C45.4965 35.8134 45.6304 35.8503 45.7905 35.8503C45.9506 35.8503 46.0799 35.8149 46.1784 35.7441C46.2769 35.6702 46.3261 35.5779 46.3261 35.4671C46.3261 35.3901 46.2999 35.327 46.2476 35.2778C46.1984 35.2285 46.1383 35.19 46.0675 35.1623C45.9998 35.1346 45.8936 35.0992 45.749 35.0561C45.5766 35.0069 45.435 34.9576 45.3242 34.9084C45.2134 34.8591 45.1195 34.7914 45.0425 34.7052C44.9686 34.616 44.9317 34.5036 44.9317 34.3682C44.9317 34.1712 45.0087 34.0142 45.1626 33.8972C45.3165 33.7802 45.5196 33.7217 45.772 33.7217C45.9413 33.7217 46.0906 33.7494 46.2199 33.8049C46.3523 33.8603 46.4539 33.9372 46.5247 34.0357C46.5955 34.1311 46.6309 34.2389 46.6309 34.3589V34.3728C46.6309 34.4036 46.6155 34.4189 46.5847 34.4189H46.3677C46.3369 34.4189 46.3215 34.4036 46.3215 34.3728V34.3589C46.3215 34.2543 46.2707 34.1665 46.1691 34.0957C46.0706 34.0249 45.9367 33.9895 45.7674 33.9895C45.6104 33.9895 45.4842 34.0219 45.3888 34.0865C45.2934 34.1481 45.2457 34.2343 45.2457 34.3451C45.2457 34.4497 45.2918 34.5298 45.3842 34.5852C45.4765 34.6406 45.6197 34.696 45.8136 34.7514C45.9921 34.8037 46.1368 34.853 46.2476 34.8991C46.3584 34.9453 46.4539 35.013 46.5339 35.1023C46.6139 35.1885 46.6539 35.3024 46.6539 35.444C46.6539 35.6441 46.5754 35.8041 46.4185 35.9242C46.2615 36.0442 46.0537 36.1043 45.7951 36.1043Z" fill="white"/>
<path d="M42.6649 36.1181C42.4432 36.1181 42.2524 36.0612 42.0923 35.9473C41.9323 35.8334 41.8215 35.6764 41.7599 35.4763C41.7168 35.3347 41.6953 35.1454 41.6953 34.9084C41.6953 34.6714 41.7168 34.4836 41.7599 34.3451C41.8184 34.1481 41.9277 33.9926 42.0877 33.8787C42.2478 33.7648 42.4417 33.7079 42.6695 33.7079C42.888 33.7079 43.0758 33.7648 43.2328 33.8787C43.3929 33.9926 43.5021 34.1465 43.5606 34.3405C43.6037 34.4728 43.6253 34.6621 43.6253 34.9084C43.6253 35.1577 43.6037 35.347 43.5606 35.4763C43.5021 35.6764 43.3929 35.8334 43.2328 35.9473C43.0758 36.0612 42.8865 36.1181 42.6649 36.1181ZM42.6649 35.8318C42.8126 35.8318 42.9388 35.7918 43.0435 35.7118C43.1482 35.6287 43.2189 35.5179 43.2559 35.3793C43.2836 35.2685 43.2974 35.1131 43.2974 34.913C43.2974 34.7098 43.2851 34.5544 43.2605 34.4466C43.2236 34.3081 43.1512 34.1989 43.0435 34.1188C42.9388 34.0357 42.8111 33.9942 42.6603 33.9942C42.5094 33.9942 42.3817 34.0357 42.277 34.1188C42.1724 34.1989 42.1016 34.3081 42.0646 34.4466C42.04 34.5544 42.0277 34.7098 42.0277 34.913C42.0277 35.1162 42.04 35.2716 42.0646 35.3793C42.0985 35.5179 42.1678 35.6287 42.2724 35.7118C42.3801 35.7918 42.511 35.8318 42.6649 35.8318Z" fill="white"/>
<path d="M40.4688 33.9711C40.4688 34.0018 40.4534 34.0172 40.4226 34.0172H39.9009C39.8886 34.0172 39.8824 34.0234 39.8824 34.0357V35.3978C39.8824 35.5455 39.9147 35.6502 39.9794 35.7118C40.0471 35.7703 40.1518 35.7995 40.2934 35.7995H40.4088C40.4396 35.7995 40.455 35.8149 40.455 35.8457V36.035C40.455 36.0658 40.4396 36.0811 40.4088 36.0811C40.3718 36.0842 40.3149 36.0858 40.2379 36.0858C40.0163 36.0858 39.8486 36.0442 39.7347 35.9611C39.6208 35.878 39.5638 35.7241 39.5638 35.4994V34.0357C39.5638 34.0234 39.5577 34.0172 39.5454 34.0172H39.2637C39.2329 34.0172 39.2175 34.0018 39.2175 33.9711V33.791C39.2175 33.7602 39.2329 33.7448 39.2637 33.7448H39.5454C39.5577 33.7448 39.5638 33.7387 39.5638 33.7263V33.1907C39.5638 33.16 39.5792 33.1446 39.61 33.1446H39.8362C39.867 33.1446 39.8824 33.16 39.8824 33.1907V33.7263C39.8824 33.7387 39.8886 33.7448 39.9009 33.7448H40.4226C40.4534 33.7448 40.4688 33.7602 40.4688 33.791V33.9711Z" fill="white"/>
<path d="M37.1651 36.1181C36.9434 36.1181 36.7526 36.0612 36.5925 35.9473C36.4355 35.8303 36.3278 35.6733 36.2693 35.4763C36.2293 35.3409 36.2093 35.15 36.2093 34.9038C36.2093 34.6821 36.2293 34.4944 36.2693 34.3405C36.3247 34.1496 36.4325 33.9972 36.5925 33.8833C36.7526 33.7664 36.9434 33.7079 37.1651 33.7079C37.3898 33.7079 37.5837 33.7648 37.7468 33.8787C37.9131 33.9926 38.0208 34.1342 38.07 34.3035C38.0854 34.3589 38.0947 34.4051 38.0978 34.442V34.4513C38.0978 34.4728 38.0839 34.4867 38.0562 34.4928L37.8253 34.5251H37.8161C37.7946 34.5251 37.7807 34.5113 37.7745 34.4836L37.7607 34.4143C37.733 34.2974 37.6653 34.1989 37.5575 34.1188C37.4498 34.0357 37.319 33.9942 37.1651 33.9942C37.0112 33.9942 36.8819 34.0357 36.7772 34.1188C36.6756 34.1989 36.6095 34.3066 36.5787 34.442C36.551 34.559 36.5371 34.7145 36.5371 34.9084C36.5371 35.1115 36.551 35.2685 36.5787 35.3793C36.6095 35.5179 36.6756 35.6287 36.7772 35.7118C36.8819 35.7918 37.0112 35.8318 37.1651 35.8318C37.3159 35.8318 37.4452 35.7934 37.5529 35.7164C37.6637 35.6364 37.733 35.5348 37.7607 35.4117V35.3932L37.7653 35.3747C37.7684 35.3439 37.7869 35.3316 37.8207 35.3378L38.047 35.3747C38.0777 35.3809 38.0916 35.3978 38.0885 35.4255L38.07 35.5179C38.0239 35.6964 37.9177 35.8411 37.7515 35.9519C37.5852 36.0627 37.3898 36.1181 37.1651 36.1181Z" fill="white"/>
<path d="M34.4818 33.791C34.4818 33.7602 34.4972 33.7448 34.528 33.7448H34.7635C34.7942 33.7448 34.8096 33.7602 34.8096 33.791V36.035C34.8096 36.0658 34.7942 36.0812 34.7635 36.0812H34.528C34.4972 36.0812 34.4818 36.0658 34.4818 36.035V35.8364C34.4818 35.8303 34.4787 35.8257 34.4726 35.8226C34.4664 35.8195 34.4618 35.821 34.4587 35.8272C34.3294 36.018 34.1247 36.1135 33.8446 36.1135C33.6969 36.1135 33.5599 36.0842 33.4337 36.0257C33.3106 35.9642 33.2121 35.8765 33.1382 35.7626C33.0674 35.6487 33.032 35.5117 33.032 35.3516V33.791C33.032 33.7602 33.0474 33.7448 33.0782 33.7448H33.3136C33.3444 33.7448 33.3598 33.7602 33.3598 33.791V35.2547C33.3598 35.4301 33.4091 35.5702 33.5076 35.6748C33.6061 35.7764 33.74 35.8272 33.9093 35.8272C34.0847 35.8272 34.2232 35.7749 34.3248 35.6702C34.4295 35.5656 34.4818 35.427 34.4818 35.2547V33.791Z" fill="white"/>
<path d="M31.2595 32.8953C31.2595 32.8645 31.2749 32.8491 31.3056 32.8491H31.5411C31.5719 32.8491 31.5873 32.8645 31.5873 32.8953V36.035C31.5873 36.0658 31.5719 36.0812 31.5411 36.0812H31.3056C31.2749 36.0812 31.2595 36.0658 31.2595 36.035V35.8411C31.2595 35.8349 31.2564 35.8318 31.2502 35.8318C31.2472 35.8288 31.2425 35.8303 31.2364 35.8365C31.1687 35.9257 31.084 35.995 30.9824 36.0442C30.8839 36.0935 30.7731 36.1181 30.65 36.1181C30.4345 36.1181 30.2529 36.0627 30.1052 35.9519C29.9605 35.8411 29.8604 35.6903 29.805 35.4994C29.7619 35.3609 29.7404 35.1654 29.7404 34.913C29.7404 34.6575 29.7589 34.4667 29.7958 34.3405C29.8512 34.1435 29.9528 33.9896 30.1005 33.8787C30.2483 33.7648 30.4314 33.7079 30.65 33.7079C30.77 33.7079 30.8809 33.7325 30.9824 33.7818C31.084 33.828 31.1687 33.8957 31.2364 33.9849C31.2425 33.9911 31.2472 33.9942 31.2502 33.9942C31.2564 33.9911 31.2595 33.9865 31.2595 33.9803V32.8953ZM31.1764 35.4763C31.2041 35.4148 31.2241 35.3424 31.2364 35.2593C31.2487 35.1762 31.2549 35.0608 31.2549 34.913C31.2549 34.7653 31.2487 34.6498 31.2364 34.5667C31.2241 34.4805 31.2025 34.4051 31.1717 34.3405C31.1348 34.2358 31.0732 34.1527 30.9871 34.0911C30.9039 34.0265 30.8039 33.9942 30.6869 33.9942C30.5638 33.9942 30.4576 34.025 30.3683 34.0865C30.2791 34.1481 30.2144 34.2297 30.1744 34.3312C30.1375 34.399 30.1098 34.4759 30.0913 34.5621C30.0759 34.6452 30.0682 34.7622 30.0682 34.913C30.0682 35.0577 30.0744 35.1716 30.0867 35.2547C30.099 35.3347 30.1205 35.4071 30.1513 35.4717C30.1883 35.5825 30.2529 35.6702 30.3453 35.7349C30.4407 35.7995 30.553 35.8318 30.6823 35.8318C30.8054 35.8318 30.9086 35.7995 30.9917 35.7349C31.0748 35.6702 31.1363 35.5841 31.1764 35.4763Z" fill="white"/>
<path d="M27.4459 36.1181C27.2243 36.1181 27.0334 36.0612 26.8734 35.9473C26.7133 35.8334 26.6025 35.6764 26.5409 35.4763C26.4978 35.3347 26.4763 35.1454 26.4763 34.9084C26.4763 34.6714 26.4978 34.4836 26.5409 34.3451C26.5994 34.1481 26.7087 33.9926 26.8688 33.8787C27.0288 33.7648 27.2227 33.7079 27.4505 33.7079C27.6691 33.7079 27.8569 33.7648 28.0138 33.8787C28.1739 33.9926 28.2832 34.1465 28.3417 34.3405C28.3848 34.4728 28.4063 34.6621 28.4063 34.9084C28.4063 35.1577 28.3848 35.347 28.3417 35.4763C28.2832 35.6764 28.1739 35.8334 28.0138 35.9473C27.8569 36.0612 27.6675 36.1181 27.4459 36.1181ZM27.4459 35.8318C27.5937 35.8318 27.7199 35.7918 27.8245 35.7118C27.9292 35.6287 28 35.5179 28.0369 35.3793C28.0646 35.2685 28.0785 35.1131 28.0785 34.913C28.0785 34.7098 28.0662 34.5544 28.0415 34.4466C28.0046 34.3081 27.9323 34.1989 27.8245 34.1188C27.7199 34.0357 27.5921 33.9942 27.4413 33.9942C27.2905 33.9942 27.1627 34.0357 27.0581 34.1188C26.9534 34.1989 26.8826 34.3081 26.8457 34.4466C26.821 34.5544 26.8087 34.7098 26.8087 34.913C26.8087 35.1162 26.821 35.2716 26.8457 35.3793C26.8795 35.5179 26.9488 35.6287 27.0534 35.7118C27.1612 35.7918 27.292 35.8318 27.4459 35.8318Z" fill="white"/>
<path d="M25.0985 33.7217C25.2001 33.7217 25.2878 33.7417 25.3617 33.7818C25.3863 33.7941 25.3956 33.8141 25.3894 33.8418L25.3386 34.068C25.3294 34.0988 25.3094 34.1081 25.2786 34.0957C25.2263 34.0742 25.1662 34.0634 25.0985 34.0634L25.0385 34.068C24.8784 34.0742 24.7461 34.1342 24.6414 34.2481C24.5367 34.3589 24.4844 34.5005 24.4844 34.6729V36.035C24.4844 36.0658 24.469 36.0812 24.4382 36.0812H24.2028C24.172 36.0812 24.1566 36.0658 24.1566 36.035V33.791C24.1566 33.7602 24.172 33.7448 24.2028 33.7448H24.4382C24.469 33.7448 24.4844 33.7602 24.4844 33.791V34.0727C24.4844 34.0819 24.486 34.088 24.489 34.0911C24.4952 34.0911 24.4998 34.088 24.5029 34.0819C24.5675 33.968 24.6491 33.8803 24.7476 33.8187C24.8492 33.7541 24.9661 33.7217 25.0985 33.7217Z" fill="white"/>
<path d="M21.9783 32.8445C22.2491 32.8445 22.4661 32.9276 22.6293 33.0938C22.7955 33.26 22.8786 33.4786 22.8786 33.7495C22.8786 34.0173 22.794 34.2327 22.6247 34.3959C22.4585 34.559 22.2384 34.6406 21.9644 34.6406H21.064C21.0517 34.6406 21.0456 34.6468 21.0456 34.6591V36.035C21.0456 36.0658 21.0302 36.0812 20.9994 36.0812H20.7639C20.7331 36.0812 20.7177 36.0658 20.7177 36.035V32.8907C20.7177 32.8599 20.7331 32.8445 20.7639 32.8445H21.9783ZM21.9413 34.3682C22.1229 34.3682 22.2707 34.3128 22.3846 34.202C22.4985 34.0881 22.5554 33.9388 22.5554 33.7541C22.5554 33.5663 22.4985 33.4155 22.3846 33.3016C22.2707 33.1877 22.1229 33.1308 21.9413 33.1308H21.064C21.0517 33.1308 21.0456 33.1369 21.0456 33.1492V34.3497C21.0456 34.362 21.0517 34.3682 21.064 34.3682H21.9413Z" fill="white"/>
</svg>
